<?xml version="1.0" encoding="UTF-8"?>
<svg id="Layer_1" xmlns="http://www.w3.org/2000/svg" version="1.1" viewBox="0 0 15 15">
  <!-- Generator: Adobe Illustrator 29.0.0, SVG Export Plug-In . SVG Version: 2.1.0 Build 186)  -->
  <defs>
    <style>
      .st0 {
        fill: #f1f2f2;
      }

      .st1 {
        fill: #939598;
      }
    </style>
  </defs>
  <circle class="st1" cx="7.49" cy="7.49" r="7.5"/>
  <path class="st0" d="M8.5,9.14v.44c0,.11,0,.18.01.22.02.24.06.36.11.36,0,0,.01,0,.06-.01.05,0,.11-.02.18-.04h-.01s.05,0,.09-.01c.04,0,.08-.01.14-.01.42,0,.62.18.62.53,0,.16-.07.29-.2.4-.13.1-.3.16-.5.16-.06,0-.14,0-.24-.01-.1,0-.21-.02-.34-.04-.12-.02-.22-.03-.31-.04-.09-.01-.16-.02-.22-.02-.09,0-.19,0-.29.01-.11,0-.22.02-.34.04-.14.02-.27.03-.37.04-.1.01-.18.02-.25.02-.43,0-.65-.18-.65-.55s.2-.53.59-.53c.02,0,.06,0,.14.01.08,0,.14.02.19.02.06.02.1.02.13.02h.07c.06,0,.11-.19.13-.58v-2.89c-.02-.38-.07-.56-.14-.56-.02,0-.04,0-.08.01-.04,0-.09.02-.14.04-.04.02-.09.03-.14.03-.05,0-.09,0-.13,0-.41,0-.61-.18-.61-.53s.23-.54.7-.54h.22c.06,0,.1,0,.12.01.11.02.21.03.28.04.08,0,.13.01.15.01.02,0,.05,0,.1,0,.05,0,.1,0,.15-.02l.31-.04c.34,0,.52.2.52.6v.17s-.01.06-.01.08v.04s-.01.14-.01.34c0,.06,0,.11,0,.17s0,.12,0,.19c0,.16-.01.32-.01.47v1.95ZM7.7,4.84c-.23,0-.43-.08-.59-.23s-.24-.34-.24-.56.08-.41.24-.56.36-.22.59-.22.43.07.59.22.25.33.25.56-.08.41-.25.56-.36.23-.59.23Z"/>
</svg>