<?xml version="1.0" encoding="UTF-8"?>
<svg id="Layer_1" xmlns="http://www.w3.org/2000/svg" version="1.1" viewBox="0 0 768.81 257.47">
  <!-- Generator: Adobe Illustrator 29.0.0, SVG Export Plug-In . SVG Version: 2.1.0 Build 186)  -->
  <defs>
    <style>
      .st0 {
        fill: #231f20;
      }
    </style>
  </defs>
  <path class="st0" d="M102.86,16.25v19.26l-31.08,3.04v192.56h17.23c44.26,0,62.5-10.13,70.27-61.49h18.24l-3.04,83.11H3.2v-19.26l23.31-2.7V38.55l-23.31-2.7v-19.59h99.66Z"/>
  <path class="st0" d="M262.31,84.16v147.97l25,2.36v18.24h-91.55v-18.24l24.66-2.36v-127.36l-24.32-2.36v-18.24h66.21ZM237.31,4.09c15.54,0,26.01,7.43,26.01,25,0,15.54-8.45,25.34-26.01,25.34-20.27,0-26.01-12.16-26.01-25,0-13.85,7.43-25.34,26.01-25.34Z"/>
  <path class="st0" d="M359.94,84.16l3.04,29.05c8.78-16.89,25.34-32.77,56.76-32.77,33.11,0,50.34,16.55,50.34,56.08v95.27l20.95,2.36v18.58h-81.08v-18.58l17.91-2.36v-91.89c0-20.27-3.38-33.11-24.66-33.11-19.93,0-36.82,13.18-36.82,40.54v84.46l19.26,2.36v18.58h-81.75v-18.58l20.61-2.36v-127.02l-20.61-2.7v-17.91h56.08Z"/>
  <path class="st0" d="M571.08,1.39v230.4l18.58,2.36v18.58h-81.75v-18.58l21.28-2.36V21.66l-21.28-2.37V1.39h63.17ZM675.13,232.13l16.55,2.03v18.58h-81.08v-18.24l15.2-1.69v-1.69l-52.03-68.24v-4.73l57.43-53.04v-2.03l-20.27-1.35v-17.57h71.62v18.24l-22.97,2.36-47.63,44.93,63.17,82.43Z"/>
  <path class="st0" d="M740.67,201.72c16.22,0,27.7,8.11,27.7,26.69,0,16.22-9.46,27.7-27.03,27.7-20.95,0-27.7-13.85-27.7-27.03,0-15.2,9.46-27.36,27.03-27.36Z"/>
</svg>